<svg width="24" height="21" viewBox="0 0 24 21" fill="none" xmlns="http://www.w3.org/2000/svg">
<path d="M6.03192 19.4099C7.71117 20.2374 9.59566 20.6689 11.4802 20.7049C11.5734 20.7049 11.6854 20.7049 11.7787 20.7049C13.6818 20.7049 15.5663 20.3092 17.2829 19.5178C18.85 18.7983 20.2682 17.7191 21.3133 16.3701C22.5072 14.823 23.1229 12.9706 23.1229 11.0458C23.1229 9.8227 23.1229 8.61758 23.1229 7.39448C23.1229 6.06345 23.1229 4.75041 23.1229 3.41938C23.1229 2.95173 23.1229 2.48407 23.1229 2.0344C23.1229 1.18901 22.2462 0.631423 21.4437 0.937199L17.1896 2.64595C16.9097 2.75387 16.5925 2.77186 16.3127 2.66394C14.9319 2.14232 13.402 1.87251 11.7787 1.87251C10.1554 1.87251 8.62543 2.1603 7.24471 2.66394C6.96484 2.77186 6.64765 2.75387 6.36777 2.64595L2.11367 0.991339C1.31137 0.667576 0.434425 1.24316 0.434425 2.08854C0.434425 2.71808 0.434425 3.3656 0.434425 3.99514C0.434425 5.30818 0.434425 6.62122 0.434425 7.95225C0.434425 9.06743 0.434425 10.1646 0.434425 11.2798C0.434425 13.0605 1.03149 14.7872 2.09502 16.2262C3.10257 17.5752 4.48328 18.6544 6.03192 19.4099ZM15.9208 11.082C16.947 11.082 17.7867 11.8914 17.7867 12.8806C17.7867 13.8699 16.947 14.6793 15.9208 14.6793C14.8946 14.6793 14.055 13.8699 14.055 12.8806C14.055 11.8736 14.8946 11.082 15.9208 11.082ZM7.63654 11.082C8.66275 11.082 9.50237 11.8914 9.50237 12.8806C9.50237 13.8699 8.66275 14.6793 7.63654 14.6793C6.61033 14.6793 5.77071 13.8699 5.77071 12.8806C5.77071 11.8736 6.61033 11.082 7.63654 11.082Z" fill="#FF2F5E"/>
</svg>
