<svg width="24" height="21" viewBox="0 0 24 21" fill="none" xmlns="http://www.w3.org/2000/svg">
<path d="M6.03192 19.4099C7.71117 20.2374 9.59566 20.6689 11.4802 20.7049C11.5734 20.7049 11.6854 20.7049 11.7787 20.7049C13.6818 20.7049 15.5663 20.3092 17.2829 19.5178C18.85 18.7983 20.2682 17.7191 21.3133 16.3701C22.5072 14.823 23.1229 12.9706 23.1229 11.0458C23.1229 9.82269 23.1229 8.61757 23.1229 7.39446C23.1229 6.06344 23.1229 4.7504 23.1229 3.41937C23.1229 2.95171 23.1229 2.48406 23.1229 2.03438C23.1229 1.189 22.2462 0.631411 21.4437 0.937187L17.1896 2.64594C16.9097 2.75386 16.5925 2.77185 16.3127 2.66392C14.9319 2.14231 13.402 1.8725 11.7787 1.8725C10.1554 1.8725 8.62543 2.16029 7.24471 2.66392C6.96484 2.77185 6.64765 2.75386 6.36777 2.64594L2.11367 0.991328C1.31137 0.667565 0.434425 1.24314 0.434425 2.08853C0.434425 2.71806 0.434425 3.36559 0.434425 3.99513C0.434425 5.30817 0.434425 6.62121 0.434425 7.95224C0.434425 9.06742 0.434425 10.1646 0.434425 11.2798C0.434425 13.0605 1.03149 14.7872 2.09502 16.2262C3.10257 17.5752 4.48328 18.6544 6.03192 19.4099ZM15.9208 11.0819C16.947 11.0819 17.7867 11.8914 17.7867 12.8806C17.7867 13.8699 16.947 14.6793 15.9208 14.6793C14.8946 14.6793 14.055 13.8699 14.055 12.8806C14.055 11.8735 14.8946 11.0819 15.9208 11.0819ZM7.63654 11.0819C8.66275 11.0819 9.50237 11.8914 9.50237 12.8806C9.50237 13.8699 8.66275 14.6793 7.63654 14.6793C6.61033 14.6793 5.77071 13.8699 5.77071 12.8806C5.77071 11.8735 6.61033 11.0819 7.63654 11.0819Z" fill="#32C0FB"/>
</svg>
