<svg width="28" height="28" viewBox="0 0 28 28" fill="none" xmlns="http://www.w3.org/2000/svg">
<path d="M27.1753 11.2765L24.0538 10.7463C23.8767 10.1874 23.6421 9.65719 23.3764 9.127L25.2016 6.56579C25.4661 6.18281 25.4374 5.65262 25.113 5.32946L22.6105 2.82689C22.2861 2.50256 21.7571 2.44391 21.3742 2.73834L18.8129 4.5635C18.3127 4.29899 17.7526 4.06323 17.1936 3.8861L16.6934 0.794697C16.6048 0.323155 16.2218 0 15.7514 0H12.2184C11.7469 0 11.3651 0.324333 11.2765 0.794697L10.7463 3.91613C10.1874 4.09325 9.65719 4.32785 9.127 4.59353L6.56579 2.76837C6.18281 2.50385 5.65262 2.5326 5.32946 2.85692L2.82689 5.35949C2.50256 5.68382 2.44391 6.21284 2.73834 6.59582L4.5635 9.15703C4.29899 9.65731 4.06323 10.2174 3.8861 10.7763L0.794697 11.2766C0.323155 11.3652 0 11.7482 0 12.2185V15.7516C0 16.2231 0.324333 16.6049 0.794697 16.6935L3.91613 17.2237C4.09325 17.7826 4.32785 18.3128 4.59353 18.843L2.76837 21.4042C2.50385 21.7872 2.5326 22.3174 2.85692 22.6405L5.35949 25.1431C5.68382 25.4674 6.21284 25.5261 6.59582 25.2316L9.15703 23.4065C9.65731 23.671 10.2174 23.9067 10.7763 24.0839L11.3065 27.2053C11.3951 27.6768 11.7781 28 12.2484 28H15.7815C16.253 28 16.6348 27.6757 16.7234 27.2053L17.2237 24.0541C17.7826 23.877 18.3128 23.6424 18.843 23.3767L21.4042 25.2019C21.7872 25.4664 22.3174 25.4377 22.6405 25.1133L25.1431 22.6108C25.4674 22.2864 25.5261 21.7574 25.2316 21.3744L23.4065 18.8132C23.671 18.313 23.9067 17.7528 24.0839 17.1939L27.2053 16.6637C27.6768 16.5752 28 16.1922 28 15.7218V12.2188C27.9701 11.7473 27.6458 11.3655 27.1754 11.2769L27.1753 11.2765ZM13.985 19.02C11.188 19.02 8.94981 16.7532 8.94981 13.9849C8.94981 11.1879 11.2166 8.9497 13.985 8.9497C16.7521 8.9497 19.0201 11.1878 19.0201 13.9849C19.0201 16.782 16.7821 19.02 13.985 19.02Z" fill="#7947F7"/>
<path fill-rule="evenodd" clip-rule="evenodd" d="M13.9993 11C15.6565 11 17 12.3435 17 13.9993C17 15.6565 15.6565 17 13.9993 17C12.3422 17 11 15.6565 11 13.9993C11 12.3422 12.3435 11 13.9993 11ZM15.6709 14.0007C15.6709 13.0744 14.9243 12.3291 13.9993 12.3291C13.073 12.3291 12.3278 13.0757 12.3278 14.0007C12.3278 14.927 13.0744 15.6722 13.9993 15.6722C14.9256 15.6722 15.6709 14.9256 15.6709 14.0007Z" fill="#FF2F5E"/>
<circle cx="14" cy="14" r="3" fill="#FF2F5E"/>
</svg>
