<svg width="26" height="26" viewBox="0 0 26 26" fill="none" xmlns="http://www.w3.org/2000/svg">
<path fill-rule="evenodd" clip-rule="evenodd" d="M13.0004 0.401093C19.9578 0.401093 25.6004 6.04365 25.6004 13.0011C25.6004 19.9585 19.9578 25.6011 13.0004 25.6011C6.04295 25.6011 0.400391 19.9585 0.400391 13.0011C0.400391 6.04365 6.04295 0.401093 13.0004 0.401093ZM10.2704 10.5575C7.74602 10.7905 6.87651 11.7694 2.35171 11.8285C2.93576 6.46368 7.48131 2.28664 13.0015 2.28664C18.5676 2.28664 23.1439 6.53368 23.6656 11.9632C19.1999 11.9096 18.279 10.9624 15.8584 10.7053C16.3637 11.3332 16.6655 12.1305 16.6655 13C16.6655 13.9155 16.3298 14.7511 15.7763 15.3932C18.2559 15.1493 19.1472 14.1835 23.6558 14.1277C23.1264 19.1842 19.0795 23.1949 14.0056 23.6673C14.057 19.2136 14.9954 18.2784 15.259 15.8864C14.6367 16.3742 13.8525 16.6651 13.0004 16.6651C12.0697 16.6651 11.2209 16.3184 10.5745 15.7464C10.8162 18.2401 11.7875 19.126 11.8421 23.6519C6.79654 23.1094 2.79898 19.0613 2.33306 13.993C6.7747 14.0488 7.70346 14.9894 10.1064 15.2487C9.62407 14.6274 9.33533 13.8476 9.33533 12.9999C9.33533 12.0615 9.68861 11.2051 10.2694 10.5565L10.2704 10.5575Z" fill="#7947F7"/>
<path fill-rule="evenodd" clip-rule="evenodd" d="M13.0003 10.5C14.3817 10.5 15.5017 11.62 15.5017 13.0003C15.5017 14.3817 14.3817 15.5017 13.0003 15.5017C11.6189 15.5017 10.5 14.3817 10.5 13.0003C10.5 11.6189 11.62 10.5 13.0003 10.5ZM14.3938 13.0014C14.3938 12.2292 13.7714 11.6079 13.0003 11.6079C12.2281 11.6079 11.6069 12.2303 11.6069 13.0014C11.6069 13.7736 12.2292 14.3948 13.0003 14.3948C13.7725 14.3948 14.3938 13.7725 14.3938 13.0014Z" fill="#FF2F5E"/>
</svg>
