<svg width="24" height="24" viewBox="0 0 24 24" fill="none" xmlns="http://www.w3.org/2000/svg">
<path fill-rule="evenodd" clip-rule="evenodd" d="M17 3.5H7C6.17157 3.5 5.5 4.17157 5.5 5V19C5.5 19.8284 6.17157 20.5 7 20.5H17C17.8284 20.5 18.5 19.8284 18.5 19V5C18.5 4.17157 17.8284 3.5 17 3.5ZM7 2C5.34315 2 4 3.34315 4 5V19C4 20.6569 5.34315 22 7 22H17C18.6569 22 20 20.6569 20 19V5C20 3.34315 18.6569 2 17 2H7Z" fill="#838383"/>
<path fill-rule="evenodd" clip-rule="evenodd" d="M8.5 6.5V7.5H15.5V6.5H8.5ZM8 5C7.44772 5 7 5.44772 7 6V8C7 8.55228 7.44772 9 8 9H16C16.5523 9 17 8.55228 17 8V6C17 5.44772 16.5523 5 16 5H8Z" fill="#838383"/>
<path fill-rule="evenodd" clip-rule="evenodd" d="M8.09091 17C7.48842 17 7 17.4477 7 18C7 18.5523 7.48842 19 8.09091 19H11.9091C12.5116 19 13 18.5523 13 18C13 17.4477 12.5116 17 11.9091 17H8.09091Z" fill="#838383"/>
<path d="M9 11C9 11.5523 8.55228 12 8 12C7.44772 12 7 11.5523 7 11C7 10.4477 7.44772 10 8 10C8.55228 10 9 10.4477 9 11Z" fill="#838383"/>
<path d="M9 14.5C9 15.0523 8.55228 15.5 8 15.5C7.44772 15.5 7 15.0523 7 14.5C7 13.9477 7.44772 13.5 8 13.5C8.55228 13.5 9 13.9477 9 14.5Z" fill="#838383"/>
<path d="M13 11C13 11.5523 12.5523 12 12 12C11.4477 12 11 11.5523 11 11C11 10.4477 11.4477 10 12 10C12.5523 10 13 10.4477 13 11Z" fill="#838383"/>
<path d="M13 14.5C13 15.0523 12.5523 15.5 12 15.5C11.4477 15.5 11 15.0523 11 14.5C11 13.9477 11.4477 13.5 12 13.5C12.5523 13.5 13 13.9477 13 14.5Z" fill="#838383"/>
<path d="M17 11C17 11.5523 16.5523 12 16 12C15.4477 12 15 11.5523 15 11C15 10.4477 15.4477 10 16 10C16.5523 10 17 10.4477 17 11Z" fill="#838383"/>
<path d="M17 14.5C17 15.0523 16.5523 15.5 16 15.5C15.4477 15.5 15 15.0523 15 14.5C15 13.9477 15.4477 13.5 16 13.5C16.5523 13.5 17 13.9477 17 14.5Z" fill="#838383"/>
<path d="M17 18C17 18.5523 16.5523 19 16 19C15.4477 19 15 18.5523 15 18C15 17.4477 15.4477 17 16 17C16.5523 17 17 17.4477 17 18Z" fill="#838383"/>
</svg>
