<svg width="28" height="28" viewBox="0 0 28 28" fill="none" xmlns="http://www.w3.org/2000/svg">
<path fill-rule="evenodd" clip-rule="evenodd" d="M22.5412 7.01735C22.4493 6.92548 22.3268 6.87407 22.1966 6.87407C22.0665 6.87407 21.944 6.92547 21.8521 7.01735L21.4277 7.44063C21.2385 7.63094 21.2385 7.94048 21.4277 8.12968L22.9152 9.61718C23.1066 9.80749 23.4151 9.8064 23.6043 9.61718L24.0287 9.1939C24.2179 9.00359 24.2179 8.69517 24.0287 8.50485L22.5412 7.01735Z" fill="#7947F7"/>
<path fill-rule="evenodd" clip-rule="evenodd" d="M24.6885 9.85347L24.2652 10.2767C23.9972 10.5447 23.6396 10.6935 23.26 10.6935C22.8805 10.6935 22.5239 10.5447 22.256 10.2767L20.7685 8.79034C20.5005 8.52127 20.3529 8.16471 20.3529 7.78519C20.3529 7.40565 20.5005 7.0491 20.7685 6.78114L21.1929 6.35787C21.7288 5.82083 22.6639 5.82083 23.201 6.35787L24.6885 7.84427C24.9565 8.11334 25.1041 8.46991 25.1041 8.84942C25.1041 9.22893 24.9565 9.58551 24.6885 9.85347H24.6885ZM27.1352 6.77459L24.2848 3.92419C23.1331 2.77247 21.2583 2.77356 20.1089 3.92419L14.4215 9.61071C13.2698 10.7624 13.2698 12.6361 14.4215 13.7878L17.2719 16.6382C17.8483 17.2146 18.6041 17.5022 19.361 17.5022C20.1168 17.5022 20.8736 17.2135 21.4489 16.6382L27.1355 10.9527C28.2872 9.80103 28.2872 7.92623 27.1355 6.77459" fill="#7947F7"/>
<path fill-rule="evenodd" clip-rule="evenodd" d="M14.4596 14.4595C14.3699 14.3709 14.2452 14.3249 14.1216 14.3228C13.9947 14.3249 13.8755 14.3785 13.7891 14.4704L11.5699 16.9117C11.4671 17.021 11.4233 17.1742 11.4528 17.3218L11.6705 18.4079L10.5833 18.1903C10.4302 18.1607 10.2727 18.2078 10.1622 18.3182L7.44426 21.0362C7.33379 21.1467 7.28676 21.3042 7.31629 21.4573L7.41582 21.9527L6.92036 21.8543C6.76724 21.8237 6.60864 21.8707 6.49818 21.9812L6.27396 22.2054C5.27865 23.2007 4.57209 24.4487 4.23083 25.8149C4.14442 26.1616 4.24286 26.5192 4.49552 26.7719C4.68802 26.9644 4.94178 27.0672 5.20537 27.0672C5.2874 27.0672 5.37053 27.0574 5.45256 27.0366C6.81865 26.6953 8.06552 25.9877 9.06204 24.9924L11.0592 22.9963C11.1686 22.8858 11.2167 22.7272 11.1861 22.5741L11.0877 22.0797L11.582 22.1782C11.7395 22.2077 11.9003 22.1596 12.0108 22.0447L16.5935 17.2399C16.7696 17.0562 16.7663 16.7663 16.587 16.587L14.4596 14.4595Z" fill="#7947F7"/>
<path fill-rule="evenodd" clip-rule="evenodd" d="M14.467 1.86703C14.7252 1.86703 14.9341 1.65813 14.9341 1.39999C14.9341 1.14186 14.7252 0.932953 14.467 0.932953C6.3546 0.932953 0 7.49335 0 15.867C0 16.1252 0.208905 16.333 0.46704 16.333C0.725175 16.333 0.93408 16.1252 0.93408 15.867C0.93408 8.01611 6.87764 1.86703 14.467 1.86703Z" fill="#FF2F5E"/>
<path fill-rule="evenodd" clip-rule="evenodd" d="M14.467 4.19999C14.7251 4.19999 14.934 3.99108 14.934 3.73295C14.934 3.47481 14.7251 3.267 14.467 3.267C7.66385 3.267 2.33405 8.80148 2.33405 15.867C2.33405 16.1251 2.54186 16.3329 2.79999 16.3329C3.05813 16.3329 3.26703 16.1251 3.26703 15.867C3.26703 9.32424 8.18663 4.19996 14.467 4.19996" fill="#FF2F5E"/>
<path fill-rule="evenodd" clip-rule="evenodd" d="M14.467 5.59999C9.06383 5.59999 4.66699 10.2057 4.66699 15.867C4.66699 16.1252 4.8759 16.333 5.13403 16.333C5.39106 16.333 5.59998 16.1252 5.59998 15.867C5.59998 10.7198 9.57794 6.53295 14.467 6.53295C14.7251 6.53295 14.9341 6.32514 14.9341 6.067C14.9341 5.80887 14.7252 5.59996 14.467 5.59996" fill="#FF2F5E"/>
</svg>
