<svg width="20" height="28" viewBox="0 0 20 28" fill="none" xmlns="http://www.w3.org/2000/svg">
<path d="M7.35281 2.75627H12.6465C13.3793 2.75627 13.9699 2.16564 13.9699 1.43282C13.9699 0.700007 13.3793 0.109375 12.6465 0.109375H7.35281C6.61999 0.109375 6.02936 0.700007 6.02936 1.43282C6.02936 2.16564 6.62545 2.75627 7.35281 2.75627Z" fill="#7947F7"/>
<path d="M16.6167 4.07961H3.38222C1.92208 4.07961 0.735352 5.26633 0.735352 6.72647V25.249C0.735352 26.7092 1.92208 27.8959 3.38222 27.8959H16.6167C18.0768 27.8959 19.2636 26.7092 19.2636 25.249V6.72647C19.2581 5.26633 18.0714 4.07961 16.6167 4.07961ZM3.38222 25.2437V6.72645H16.6167V25.249H3.38222V25.2437Z" fill="#7947F7"/>
<path d="M13.4452 14.6672H11.7991C11.5092 14.6672 11.2741 14.4321 11.2741 14.1422V8.54784C11.2741 8.00644 10.5631 7.81503 10.2952 8.28534L6.10077 16.5159C5.89842 16.8659 6.15545 17.3034 6.55468 17.3034H8.12422C8.41407 17.3034 8.64922 17.5386 8.64922 17.8284V23.3629C8.64922 23.9043 9.36017 24.0957 9.62813 23.6254L13.8936 15.455C14.096 15.105 13.8444 14.6675 13.4452 14.6675L13.4452 14.6672Z" fill="#FF2F5E"/>
</svg>
