<svg width="26" height="26" viewBox="0 0 26 26" fill="none" xmlns="http://www.w3.org/2000/svg">
<path fill-rule="evenodd" clip-rule="evenodd" d="M13 0C20.1798 0 26 5.82019 26 13C26 20.1798 20.1798 26 13 26C5.82019 26 0 20.1798 0 13C0 5.82019 5.82019 0 13 0ZM13 3.77555C18.0943 3.77555 22.2258 7.90573 22.2258 13.0014C22.2258 18.0957 18.0957 22.2272 13 22.2272C7.90573 22.2272 3.77416 18.097 3.77416 13.0014C3.77416 7.90712 7.90435 3.77555 13 3.77555Z" fill="#7947F7"/>
<path fill-rule="evenodd" clip-rule="evenodd" d="M11.8682 12.2051H14.1323L14.8866 6.72084H11.1138L11.8682 12.2051Z" fill="#FF2F5E"/>
<path fill-rule="evenodd" clip-rule="evenodd" d="M13.4752 11.7L14.0615 13.8883L19.5541 13.1977L18.5778 9.55217L13.4752 11.7Z" fill="#FF2F5E"/>
<path fill-rule="evenodd" clip-rule="evenodd" d="M14.3793 13.1231L12.4184 14.2551L14.5065 19.382L17.7755 17.4943L14.3793 13.1231Z" fill="#FF2F5E"/>
<path fill-rule="evenodd" clip-rule="evenodd" d="M13.2382 14.3638L11.6363 12.7618L7.22424 16.1066L9.89329 18.7756L13.2382 14.3638Z" fill="#FF2F5E"/>
<path fill-rule="evenodd" clip-rule="evenodd" d="M11.7452 13.5824L12.8773 11.6216L8.5062 8.22531L6.61849 11.4943L11.7452 13.5824Z" fill="#FF2F5E"/>
<path fill-rule="evenodd" clip-rule="evenodd" d="M13.0006 5.53455C17.1228 5.53455 20.4661 8.87662 20.4661 13C20.4661 17.1222 17.124 20.4655 13.0006 20.4655C8.87841 20.4655 5.53516 17.1234 5.53516 13C5.53516 8.8778 8.87723 5.53455 13.0006 5.53455ZM13.0006 7.37486C16.1071 7.37486 18.6246 9.8936 18.6246 12.9988C18.6246 16.1053 16.1059 18.6228 13.0006 18.6228C9.89418 18.6228 7.37665 16.1041 7.37665 12.9988C7.37665 9.89239 9.89539 7.37486 13.0006 7.37486Z" fill="#7947F7"/>
</svg>
