<svg width="22" height="28" viewBox="0 0 22 28" fill="none" xmlns="http://www.w3.org/2000/svg">
<path d="M6.71611 10.8248L6.70736 7.4648C6.70736 6.31966 7.15362 5.24121 7.96518 4.4296C8.77564 3.61914 9.85299 3.17178 11.0004 3.17178C12.1466 3.17178 13.2251 3.61914 14.0356 4.4296C14.846 5.24115 15.2923 6.3196 15.2923 7.4648V10.8248H18.4653V7.4648C18.4664 3.34348 15.1226 0 11.0005 0C6.8769 0 3.53566 3.34264 3.53566 7.4648V10.8248H6.71611Z" fill="#FF2F5E"/>
<path d="M0.269531 12.9707V27.9989H21.731V12.9707H0.269531ZM12.0732 21.3587V24.1696H9.92726V21.3587C9.19991 20.9726 8.70335 20.208 8.70335 19.3265C8.70335 18.0599 9.73258 17.0318 11.0002 17.0318C12.2679 17.0318 13.296 18.061 13.296 19.3265C13.296 20.208 12.7994 20.9726 12.0732 21.3587H12.0732Z" fill="#7947F7"/>
</svg>
