<svg width="28" height="29" viewBox="0 0 28 29" fill="none" xmlns="http://www.w3.org/2000/svg">
<path d="M13.5415 21.8738C17.4573 21.8738 20.6317 18.6994 20.6317 14.7836C20.6317 10.8678 17.4573 7.69347 13.5415 7.69347C9.62572 7.69347 6.45135 10.8678 6.45135 14.7836C6.45135 18.6994 9.62572 21.8738 13.5415 21.8738Z" fill="#9BA6B2"/>
<path d="M5.47273 8.08768L6.50932 5.02756L9.71265 4.9992C10.1508 4.99453 10.577 4.85544 10.9336 4.60074L13.5513 2.73035L14.7864 0.996097C14.4225 0.737371 13.9871 0.598358 13.5406 0.598358C13.0942 0.598358 12.6588 0.737371 12.2949 0.996097L9.68145 2.87215L6.48804 2.90051C6.04134 2.90489 5.60716 3.04869 5.24616 3.31181C4.88515 3.57494 4.61535 3.94426 4.47444 4.36818L3.45629 7.40986L3.44495 7.42546L4.72118 9.1271C5.07189 8.86543 5.33415 8.50273 5.47273 8.08768Z" fill="#9BA6B2"/>
<path d="M4.71935 20.4373L2.1442 18.4918L3.10138 15.4274C3.2329 15.0088 3.2329 14.5599 3.10138 14.1413L2.15271 11.0471L0.883572 9.33838C0.525921 9.60553 0.259846 9.97696 0.121958 10.4015C-0.0159312 10.8261 -0.018858 11.283 0.11358 11.7093L1.07075 14.7921L0.11358 17.8593C-0.0188316 18.2847 -0.0161636 18.7407 0.121217 19.1645C0.258598 19.5884 0.523941 19.9592 0.880736 20.226L3.44454 22.1404L3.45588 22.156L5.47233 21.4796C5.33363 21.0634 5.07086 20.6997 4.71935 20.4373Z" fill="#9BA6B2"/>
<path d="M16.1542 24.9722L13.5323 26.8369L10.9274 24.975C10.5699 24.7199 10.1427 24.5808 9.70359 24.5766L6.49174 24.5284L4.47247 25.2019C4.6135 25.6259 4.8833 25.9953 5.24424 26.2586C5.60519 26.5219 6.0393 26.6661 6.48607 26.671L9.68941 26.7065L12.2958 28.5697C12.6595 28.8287 13.095 28.9678 13.5415 28.9678C13.988 28.9678 14.4234 28.8287 14.7872 28.5697L17.3922 26.7079H17.4035L17.3751 24.5808C16.9377 24.5834 16.5116 24.72 16.1542 24.9722Z" fill="#9BA6B2"/>
<path d="M26.0116 14.7836L23.981 14.1469C23.8495 14.5656 23.8495 15.0145 23.981 15.4331L24.9268 18.5301L22.3602 20.4473C22.01 20.7091 21.7483 21.0718 21.6101 21.4867L20.5749 24.5468L20.5948 26.6738C21.0415 26.6695 21.4756 26.5257 21.8366 26.2625C22.1976 25.9994 22.4674 25.6301 22.6084 25.2062L23.6379 22.1489L26.2002 20.236C26.5579 19.9688 26.824 19.5974 26.9619 19.1728C27.0997 18.7482 27.1027 18.2913 26.9702 17.865L26.0116 14.7836Z" fill="#9BA6B2"/>
<path d="M20.5916 5.04457L21.6112 8.08767C21.7498 8.50311 22.012 8.86628 22.3628 9.12851L24.9379 11.0755L26.9685 11.7065C27.1009 11.2811 27.0983 10.8251 26.9609 10.4013C26.8235 9.97746 26.5582 9.60662 26.2014 9.33979L23.6262 7.40985L22.6081 4.36675C22.467 3.9428 22.1973 3.57341 21.8363 3.31007C21.4754 3.04673 21.0413 2.90257 20.5945 2.89767L17.4039 2.87215H17.3926L16.1546 4.60356C16.5121 4.85865 16.9393 4.99775 17.3784 5.00203L20.5916 5.04457Z" fill="#9BA6B2"/>
</svg>
