<svg width="29" height="29" viewBox="0 0 29 29" fill="none" xmlns="http://www.w3.org/2000/svg">
<path d="M1.24361 18.6391C2.94606 20.121 4.13422 22.1051 4.63699 24.3055C4.81714 25.039 5.25571 25.683 5.87225 26.1194C6.4888 26.5557 7.24199 26.7551 7.99369 26.6811C10.1939 26.5475 12.3797 27.1163 14.2358 28.3054C14.8494 28.7009 15.5855 28.8606 16.3078 28.755C17.0301 28.6495 17.6897 28.2857 18.1645 27.7312C19.6026 26.0607 21.5342 24.8901 23.6806 24.3885C24.4221 24.2443 25.0867 23.8376 25.5526 23.2431C26.0185 22.6486 26.2544 21.906 26.2171 21.1516C26.0691 18.8993 26.6398 16.6582 27.8469 14.7511C28.2353 14.1353 28.391 13.401 28.2857 12.6806C28.1804 11.9602 27.8211 11.3011 27.2727 10.8223C25.5703 9.34035 24.3821 7.35631 23.8793 5.15592C23.6992 4.42238 23.2606 3.77839 22.6441 3.34204C22.0275 2.90569 21.2743 2.70625 20.5226 2.7803C18.3224 2.91387 16.1366 2.34509 14.2806 1.156C13.667 0.760534 12.9308 0.600799 12.2085 0.706367C11.4862 0.811934 10.8266 1.17565 10.3518 1.73018C8.91369 3.40071 6.9821 4.57125 4.83567 5.07294C4.09423 5.21711 3.42962 5.62376 2.96373 6.2183C2.49785 6.81285 2.26193 7.55542 2.29924 8.30983C2.44722 10.5621 1.87656 12.8032 0.669427 14.7103C0.280971 15.3261 0.12535 16.0604 0.230635 16.7808C0.335921 17.5012 0.695181 18.1603 1.24361 18.6391ZM13.2732 20.2488C15.1339 19.9768 16.8103 18.9769 17.9337 17.4689C19.0571 15.9609 19.5355 14.0685 19.2636 12.2078C19.0572 10.7509 18.3927 9.39752 17.366 8.34347C18.3029 8.80203 19.1273 9.46141 19.7805 10.2747C20.4336 11.088 20.8996 12.0352 21.1452 13.049C21.3908 14.0628 21.41 15.1182 21.2014 16.1403C20.9929 17.1623 20.5617 18.1259 19.9385 18.9624C19.3153 19.7989 18.5155 20.4878 17.5959 20.9801C16.6762 21.4725 15.6594 21.7561 14.6178 21.811C13.5761 21.8658 12.5351 21.6904 11.5689 21.2973C10.6027 20.9042 9.73502 20.303 9.0275 19.5365C10.3313 20.2185 11.8183 20.468 13.2732 20.2488Z" fill="#8C53FF"/>
</svg>
