<svg width="24" height="25" viewBox="0 0 24 25" fill="none" xmlns="http://www.w3.org/2000/svg">
<path fill-rule="evenodd" clip-rule="evenodd" d="M16 19H20.5858C21.3668 19 22 18.3668 22 17.5858C22 17.2107 21.851 16.851 21.5858 16.5858L20.5858 15.5858C20.2107 15.2107 20 14.702 20 14.1716L20 10.9707C20 6.56859 16.4314 3 12.0293 3C7.61789 3 4.04543 6.58319 4.05867 10.9946L4.06814 14.1476C4.06977 14.6922 3.84928 15.2139 3.45759 15.5922L2.42864 16.586C2.15471 16.8506 2 17.2151 2 17.5959C2 18.3714 2.62863 19 3.40408 19H8C8 21.2091 9.79086 23 12 23C14.2091 23 16 21.2091 16 19ZM19.5251 16.6464L20.3787 17.5H3.64147L4.49967 16.6711C5.18513 16.009 5.57099 15.0961 5.56813 14.1431L5.55867 10.9901C5.54792 7.40887 8.44807 4.5 12.0293 4.5C15.603 4.5 18.5 7.39702 18.5 10.9707L18.5 14.1716C18.5 15.0998 18.8687 15.9901 19.5251 16.6464ZM14.5 19H9.5C9.5 20.3807 10.6193 21.5 12 21.5C13.3807 21.5 14.5 20.3807 14.5 19Z" fill="black"/>
<circle cx="18" cy="4" r="4" fill="#FF2F5E"/>
</svg>
