<svg width="26" height="24" viewBox="0 0 26 24" fill="none" xmlns="http://www.w3.org/2000/svg">
<path d="M3.1473 1.95458H4.98077V1.086C4.98077 0.488917 5.47362 0 6.07551 0H19.8966C20.4985 0 20.9913 0.488917 20.9913 1.086V1.95458H22.8526C24.5771 1.95458 26 3.36617 26 5.07683V7.24883C26 9.2575 24.7684 11.0498 22.8805 11.7826L18.8576 13.3575C18.3926 14.0087 17.8174 14.6069 17.2155 15.1499L15.1084 16.9963V20.0908H16.0385C17.2979 20.0908 18.3103 21.0952 18.3103 22.3445V23.4846C18.3103 23.7837 18.0644 24 17.7907 24H8.18382C7.88232 24 7.66425 23.7561 7.66425 23.4846V22.3445C7.66425 21.0952 8.67667 20.0908 9.93605 20.0908H10.8661L10.8651 17.0226L8.75792 15.1762C8.12823 14.6332 7.58086 14.0361 7.11581 13.3839L3.09291 11.8089C1.23164 11.0496 0 9.28484 0 7.27625V5.10425C0 3.36603 1.42294 1.95431 3.14738 1.95431L3.1473 1.95458ZM22.086 9.74636C23.1263 9.33911 23.7827 8.36128 23.7827 7.24878V5.07678C23.7827 4.56136 23.3721 4.15411 22.8526 4.15411H21.0191V6.86911C21.0191 8.09086 20.7999 9.28503 20.4172 10.3986L22.086 9.74636ZM8.86677 7.11303L10.4811 8.63386C10.5356 8.68795 10.5901 8.79718 10.5634 8.87779L10.1529 11.0498C10.0705 11.4846 10.5356 11.8102 10.9194 11.5928L12.8897 10.5344C12.972 10.4803 13.0811 10.4803 13.1634 10.5344L15.1337 11.5928C15.5164 11.8102 15.9548 11.4846 15.9002 11.0498L15.4897 8.87779C15.4619 8.79613 15.5175 8.68795 15.572 8.63386L17.1329 7.11303C17.4344 6.81394 17.2697 6.29853 16.8314 6.24444L14.6141 5.94536C14.5318 5.94536 14.4495 5.8637 14.395 5.78204L13.4371 3.79987C13.2457 3.4202 12.6983 3.4202 12.507 3.79987L11.5491 5.78204C11.5213 5.8637 11.44 5.91779 11.3299 5.94536L9.11262 6.24444C8.7299 6.29853 8.53851 6.81397 8.86673 7.11303H8.86677ZM2.21704 7.27635C2.21704 8.38994 2.90125 9.36668 3.94148 9.77393L5.58359 10.4251C5.20087 9.28502 4.9817 8.11735 4.9817 6.8956V4.1806H3.14716C2.6276 4.1806 2.21707 4.58785 2.21707 5.10327L2.21704 7.27635Z" fill="#9BA6B2"/>
</svg>
